HIERARCHY
ROOT mixamorig:Hips
{
	OFFSET 0.00 0.00 0.00
	CHANNELS 6 Xposition Yposition Zposition Zrotation Yrotation Xrotation
	JOINT mixamorig:Spine
	{
		OFFSET	0.0125	10.4452	-0.9963
		CHANNELS 3 Zrotation Yrotation Xrotation
		JOINT mixamorig:Spine1
		{
			OFFSET	0.0145	12.1861	-1.1623
			CHANNELS 3 Zrotation Yrotation Xrotation
			JOINT mixamorig:Spine2
			{
				OFFSET	0.0166	13.9270	-1.3284
				CHANNELS 3 Zrotation Yrotation Xrotation
				JOINT mixamorig:Neck
				{
					OFFSET	0.0187	15.6679	-1.4944
					CHANNELS 3 Zrotation Yrotation Xrotation
					JOINT mixamorig:Head
					{
						OFFSET	-0.0000	7.0878	0.8887
						CHANNELS 3 Zrotation Yrotation Xrotation
						End Site
						{
							OFFSET -0.0000 21.3244 2.6737
						}
					}
				}
				JOINT mixamorig:LeftShoulder
				{
					OFFSET	6.2331	12.5732	-1.4620
					CHANNELS 3 Zrotation Yrotation Xrotation
					JOINT mixamorig:LeftArm
					{
						OFFSET	12.4288	-6.1895	0.0647
						CHANNELS 3 Zrotation Yrotation Xrotation
						JOINT mixamorig:LeftForeArm
						{
							OFFSET	12.5822	-17.6989	-0.0651
							CHANNELS 3 Zrotation Yrotation Xrotation
							JOINT mixamorig:LeftHand
							{
								OFFSET	10.9147	-21.0687	11.6035
								CHANNELS 3 Zrotation Yrotation Xrotation
								JOINT mixamorig:LeftHandThumb1
								{
									OFFSET	-1.7358	-3.6666	2.6651
									CHANNELS 3 Zrotation Yrotation Xrotation
									JOINT mixamorig:LeftHandThumb2
									{
										OFFSET	-1.3886	-2.9333	2.1321
										CHANNELS 3 Zrotation Yrotation Xrotation
										JOINT mixamorig:LeftHandThumb3
										{
											OFFSET	-1.7918	-3.3945	1.6896
											CHANNELS 3 Zrotation Yrotation Xrotation
											End Site
											{
												OFFSET -1.1716 -2.6948 1.2270
											}
										}
									}
								}
								JOINT mixamorig:LeftHandIndex1
								{
									OFFSET	1.2042	-11.6606	7.5887
									CHANNELS 3 Zrotation Yrotation Xrotation
									JOINT mixamorig:LeftHandIndex2
									{
										OFFSET	-0.0885	-2.2672	1.0042
										CHANNELS 3 Zrotation Yrotation Xrotation
										JOINT mixamorig:LeftHandIndex3
										{
											OFFSET	-0.3002	-1.9399	0.5096
											CHANNELS 3 Zrotation Yrotation Xrotation
											End Site
											{
												OFFSET -0.2176 -2.6233 0.6157
											}
										}
									}
								}
								JOINT mixamorig:LeftHandMiddle1
								{
									OFFSET	3.0635	-12.2364	5.5160
									CHANNELS 3 Zrotation Yrotation Xrotation
									JOINT mixamorig:LeftHandMiddle2
									{
										OFFSET	0.4236	-2.6124	0.6959
										CHANNELS 3 Zrotation Yrotation Xrotation
										JOINT mixamorig:LeftHandMiddle3
										{
											OFFSET	-0.0346	-2.2988	0.2871
											CHANNELS 3 Zrotation Yrotation Xrotation
											End Site
											{
												OFFSET 0.2796 -2.9102 0.5104
											}
										}
									}
								}
								JOINT mixamorig:LeftHandRing1
								{
									OFFSET	4.3250	-12.3373	2.7720
									CHANNELS 3 Zrotation Yrotation Xrotation
									JOINT mixamorig:LeftHandRing2
									{
										OFFSET	0.0343	-2.6042	-0.1448
										CHANNELS 3 Zrotation Yrotation Xrotation
										JOINT mixamorig:LeftHandRing3
										{
											OFFSET	-0.4080	-2.1150	-0.2682
											CHANNELS 3 Zrotation Yrotation Xrotation
											End Site
											{
												OFFSET -0.1807 -2.8052 -0.0224
											}
										}
									}
								}
								JOINT mixamorig:LeftHandPinky1
								{
									OFFSET	4.5316	-12.9281	-0.0800
									CHANNELS 3 Zrotation Yrotation Xrotation
									JOINT mixamorig:LeftHandPinky2
									{
										OFFSET	-0.2254	-1.6990	-0.6318
										CHANNELS 3 Zrotation Yrotation Xrotation
										JOINT mixamorig:LeftHandPinky3
										{
											OFFSET	-0.4223	-1.3628	-0.4724
											CHANNELS 3 Zrotation Yrotation Xrotation
											End Site
											{
												OFFSET -0.7253 -1.5757 -0.7080
											}
										}
									}
								}
							}
						}
					}
				}
				JOINT mixamorig:RightShoulder
				{
					OFFSET	-6.1994	12.5731	-1.5268
					CHANNELS 3 Zrotation Yrotation Xrotation
					JOINT mixamorig:RightArm
					{
						OFFSET	-12.4361	-6.1894	-0.0647
						CHANNELS 3 Zrotation Yrotation Xrotation
						JOINT mixamorig:RightForeArm
						{
							OFFSET	-12.5822	-17.6989	0.1601
							CHANNELS 3 Zrotation Yrotation Xrotation
							JOINT mixamorig:RightHand
							{
								OFFSET	-10.9147	-21.0687	11.5252
								CHANNELS 3 Zrotation Yrotation Xrotation
								JOINT mixamorig:RightHandThumb1
								{
									OFFSET	1.8326	-3.8313	2.8102
									CHANNELS 3 Zrotation Yrotation Xrotation
									JOINT mixamorig:RightHandThumb2
									{
										OFFSET	1.4660	-3.0650	2.2481
										CHANNELS 3 Zrotation Yrotation Xrotation
										JOINT mixamorig:RightHandThumb3
										{
											OFFSET	1.7022	-3.2799	1.5927
											CHANNELS 3 Zrotation Yrotation Xrotation
											End Site
											{
												OFFSET 0.9222 -2.4964 1.2260
											}
										}
									}
								}
								JOINT mixamorig:RightHandIndex1
								{
									OFFSET	-1.2113	-11.6910	7.5909
									CHANNELS 3 Zrotation Yrotation Xrotation
									JOINT mixamorig:RightHandIndex2
									{
										OFFSET	0.1340	-2.2478	1.0804
										CHANNELS 3 Zrotation Yrotation Xrotation
										JOINT mixamorig:RightHandIndex3
										{
											OFFSET	0.2833	-1.9852	0.4907
											CHANNELS 3 Zrotation Yrotation Xrotation
											End Site
											{
												OFFSET 0.2347 -2.6272 0.4660
											}
										}
									}
								}
								JOINT mixamorig:RightHandMiddle1
								{
									OFFSET	-3.1183	-12.4952	5.5338
									CHANNELS 3 Zrotation Yrotation Xrotation
									JOINT mixamorig:RightHandMiddle2
									{
										OFFSET	-0.3657	-2.5472	0.7803
										CHANNELS 3 Zrotation Yrotation Xrotation
										JOINT mixamorig:RightHandMiddle3
										{
											OFFSET	0.0506	-2.2906	0.2557
											CHANNELS 3 Zrotation Yrotation Xrotation
											End Site
											{
												OFFSET -0.1704 -2.9156 0.4516
											}
										}
									}
								}
								JOINT mixamorig:RightHandRing1
								{
									OFFSET	-4.3615	-12.5986	2.8743
									CHANNELS 3 Zrotation Yrotation Xrotation
									JOINT mixamorig:RightHandRing2
									{
										OFFSET	0.0394	-2.4666	-0.2159
										CHANNELS 3 Zrotation Yrotation Xrotation
										JOINT mixamorig:RightHandRing3
										{
											OFFSET	0.4323	-2.1153	-0.2184
											CHANNELS 3 Zrotation Yrotation Xrotation
											End Site
											{
												OFFSET 0.0751 -2.6586 -0.0626
											}
										}
									}
								}
								JOINT mixamorig:RightHandPinky1
								{
									OFFSET	-4.4132	-11.5032	0.4194
									CHANNELS 3 Zrotation Yrotation Xrotation
									JOINT mixamorig:RightHandPinky2
									{
										OFFSET	-0.1665	-2.1237	-0.7208
										CHANNELS 3 Zrotation Yrotation Xrotation
										JOINT mixamorig:RightHandPinky3
										{
											OFFSET	0.5102	-1.7553	-0.6317
											CHANNELS 3 Zrotation Yrotation Xrotation
											End Site
											{
												OFFSET 0.3407 -2.2265 -0.9448
											}
										}
									}
								}
							}
						}
					}
				}
			}
		}
	}
	JOINT mixamorig:LeftUpLeg
	{
		OFFSET	10.1286	-5.8029	-0.5827
		CHANNELS 3 Zrotation Yrotation Xrotation
		JOINT mixamorig:LeftLeg
		{
			OFFSET	4.2353	-40.9156	0.1368
			CHANNELS 3 Zrotation Yrotation Xrotation
			JOINT mixamorig:LeftFoot
			{
				OFFSET	2.7471	-36.6710	-5.9597
				CHANNELS 3 Zrotation Yrotation Xrotation
				JOINT mixamorig:LeftToeBase
				{
					OFFSET	2.4527	-12.3426	15.4410
					CHANNELS 3 Zrotation Yrotation Xrotation
					End Site
					{
						OFFSET 1.4532 0.2140 7.5769
					}
				}
			}
		}
	}
	JOINT mixamorig:RightUpLeg
	{
		OFFSET	-10.0150	-5.8029	-0.7207
		CHANNELS 3 Zrotation Yrotation Xrotation
		JOINT mixamorig:RightLeg
		{
			OFFSET	-4.2353	-40.9157	0.2580
			CHANNELS 3 Zrotation Yrotation Xrotation
			JOINT mixamorig:RightFoot
			{
				OFFSET	-2.7471	-36.6708	-6.0475
				CHANNELS 3 Zrotation Yrotation Xrotation
				JOINT mixamorig:RightToeBase
				{
					OFFSET	-2.4527	-12.3428	15.3607
					CHANNELS 3 Zrotation Yrotation Xrotation
					End Site
					{
						OFFSET -1.4532 0.2139 7.5074
					}
				}
			}
		}
	}
}
MOTION
Frames: 4
Frame Time: 0.0333333
-0.0087 87.4159 1.1858 1.3885 -3.5475 -0.4373 -0.2049 0.6823 2.0819 -0.3922 1.3687 3.1300 -0.3793 1.3752 3.1292 -1.8934 -2.3070 -4.1282 7.1007 -12.9912 -16.3454 14.7182 -7.3425 -0.6201 -32.1071 -10.7570 26.4315 28.3001 -26.9345 -76.3093 20.8824 17.2113 0.2803 -6.5496 -0.0837 6.1083 10.1924 5.4540 8.1343 2.9083 0.1762 8.5328 -22.0463 -2.6447 11.6517 -33.1326 -7.1707 20.4209 -29.1402 -4.6045 17.4113 -36.1523 -4.4147 13.7457 -28.7127 -0.4520 15.8892 -33.3751 1.4520 19.2990 -29.1950 -5.5885 -0.9373 -23.8257 4.1151 15.8195 -38.5674 7.6290 23.1302 -17.8397 -5.8227 -13.8143 -28.2190 9.1636 16.6906 -19.3292 5.4908 9.7010 -7.4438 1.7264 0.4450 30.9845 21.6651 29.9967 -32.5323 27.6468 -85.5659 -16.0261 -26.3430 -14.4836 2.2916 -6.4344 11.4673 -6.8985 -4.7988 -0.3280 2.3795 1.4326 2.3148 26.1361 0.6216 30.7195 20.7562 6.3807 10.3908 31.5763 3.0896 21.0392 30.2281 2.4753 16.8364 23.5098 1.3257 13.3775 36.2970 -3.7460 25.1479 26.1804 3.9550 1.5006 11.4646 -0.9740 13.9169 34.6462 -6.1353 20.3454 36.2454 5.7759 -4.5809 18.7181 -8.3114 21.0357 32.5627 -13.3666 10.0446 -9.3428 2.2626 -22.7512 7.9040 3.7695 53.2628 7.5613 -0.2584 -28.9430 0.0000 -0.0000 -5.5373 6.4088 -6.2457 -21.4978 -14.3522 -5.8768 54.6251 0.0321 -1.7324 -29.3993 0.0000 -0.0000 -8.0292 
-0.0084 88.4891 1.1772 1.0291 -3.3227 0.0647 -0.1456 0.6503 1.8658 -0.2367 1.2972 2.7495 -0.2250 1.3027 2.7486 -1.6755 -2.2889 -3.9762 6.7385 -12.6918 -16.7180 16.2179 -8.2952 -0.9788 -34.1162 -10.4787 27.1334 28.7744 -27.0467 -77.3544 21.9959 18.1066 -0.7767 -6.1931 -0.0159 5.8897 10.1947 5.4539 8.1400 3.0099 0.1574 8.7954 -22.2457 -2.6597 11.6137 -32.9135 -7.1704 20.2491 -29.0564 -4.6060 17.3481 -36.7931 -4.4295 13.5915 -28.8374 -0.4338 15.9655 -33.2891 1.4329 19.2485 -29.7345 -5.5567 -0.8154 -23.8837 4.1325 15.8497 -38.4174 7.5705 23.0603 -18.5059 -5.8527 -13.4373 -28.7621 9.4311 16.9374 -19.1606 5.4293 9.6161 -7.4276 2.7208 0.4442 30.3228 22.7681 30.9709 -33.2479 27.7068 -87.1061 -13.7598 -26.6867 -17.2035 1.9593 -6.4676 11.3324 -6.8985 -4.7988 -0.3280 2.4303 1.4371 2.2353 26.0269 0.6275 30.4123 20.5917 6.3524 10.2418 31.4400 3.1059 20.9212 29.9128 2.5672 16.3416 23.1730 1.3610 13.1278 36.3081 -3.7476 25.1551 25.9929 3.9730 1.3157 11.3643 -0.9527 13.8504 34.5783 -6.1091 20.3040 36.2016 5.7885 -4.6720 18.7704 -8.3437 21.0628 32.5188 -13.3437 10.0255 -9.2750 2.0129 -22.8428 8.2008 3.4359 51.5282 7.4265 -0.3658 -26.2211 0.0000 -0.0000 -7.3580 6.6365 -6.5979 -21.5386 -14.1144 -6.3522 52.6990 -0.1774 -1.3471 -26.3905 0.0000 -0.0000 -10.0334 
0.0845 91.6278 1.5353 0.3545 -3.4913 0.4767 0.1213 0.6985 1.4690 0.0977 1.4021 2.1950 0.1083 1.4091 2.1933 -1.4297 -2.2866 -4.1275 6.5492 -12.5781 -15.6548 16.8758 -8.5755 -1.1182 -34.3564 -11.2525 28.5980 30.3646 -27.3632 -80.8325 22.8185 17.9599 -0.8989 -5.9012 0.0486 5.6852 10.0653 5.4511 7.8249 3.0816 0.1436 8.9804 -22.4203 -2.6853 11.3932 -32.6024 -7.1687 20.0054 -28.8906 -4.6087 17.2231 -37.1438 -4.4896 13.2417 -28.8155 -0.4370 15.9522 -33.1856 1.4099 19.1878 -29.7966 -5.5566 -0.9595 -23.8721 4.1290 15.8437 -38.3005 7.5250 23.0058 -18.4793 -5.8501 -13.4608 -29.0903 9.5940 17.0856 -19.0683 5.3958 9.5696 -5.6148 3.8742 0.5247 26.6805 23.9599 31.4774 -35.4330 27.7843 -91.7963 -12.5493 -26.8440 -18.7638 1.4817 -6.4628 11.3018 -6.8985 -4.7988 -0.3280 2.4718 1.4408 2.1704 25.9775 0.6244 30.0104 20.4034 6.3194 10.0713 31.3344 3.1184 20.8297 29.8641 2.6467 15.8845 22.7537 1.4029 12.8168 36.3254 -3.7496 25.1665 25.6841 4.0031 1.0996 11.0847 -0.8939 13.6651 34.5418 -6.0957 20.2819 36.1656 5.8035 -4.8459 18.6793 -8.2876 21.0156 32.4732 -13.3200 10.0056 -8.9950 2.6895 -21.8213 7.6595 2.0820 46.2538 6.5736 -0.6408 -17.1813 -0.0000 -0.0000 -13.4037 6.4800 -7.7017 -19.9113 -13.3850 -6.9856 46.0941 1.6439 1.4808 -16.6126 0.0000 -0.0000 -13.1038 
0.2560 95.7775 2.0085 -0.2774 -3.9281 1.0162 0.4496 0.7938 0.9766 0.4536 1.6045 1.5231 0.4625 1.6141 1.5197 -1.2525 -2.3090 -4.7417 6.5543 -12.7036 -13.6114 16.3446 -8.1042 -0.9581 -32.2645 -12.8155 30.0196 32.7331 -27.6701 -85.9569 23.3564 17.0149 0.1189 -5.8396 0.0665 5.6282 9.9609 5.4478 7.5704 3.1453 0.1310 9.1445 -22.5105 -2.7100 11.1218 -32.4216 -7.1672 19.8637 -28.7540 -4.6107 17.1200 -37.1835 -4.5671 12.8533 -28.7580 -0.4454 15.9170 -33.0996 1.3909 19.1373 -29.5255 -5.5776 -1.2074 -23.8494 4.1222 15.8318 -38.2441 7.5032 22.9796 -17.8277 -5.8295 -13.7791 -29.0259 9.5620 17.0566 -19.0766 5.3988 9.5737 -4.1224 4.1565 0.6010 22.4999 26.2317 30.9305 -38.0109 27.6719 -97.3320 -12.9328 -25.8115 -18.1850 0.9506 -6.3980 11.4504 -6.8985 -4.7988 -0.3280 2.5635 1.4493 2.0264 26.2039 0.5921 29.7290 20.2084 6.2846 9.8947 31.2347 3.1300 20.7433 30.4215 2.6551 15.7641 22.4327 1.4334 12.5787 36.3533 -3.7539 25.1849 25.6429 4.0063 1.0306 10.8168 -0.8384 13.4873 34.5870 -6.1117 20.3091 36.2298 5.8018 -5.0681 18.6905 -8.2945 21.0214 32.4441 -13.3048 9.9929 -8.4017 4.3403 -20.4711 6.0801 0.0846 38.3096 4.2057 -0.8562 -2.3744 -0.8012 -0.2130 -16.9103 6.4432 -9.7202 -17.0830 -9.8591 -5.8456 35.6876 1.6123 1.9252 -3.7123 -0.0801 -0.0182 -17.1038 
